<mxfile host="app.diagrams.net" modified="2023-07-13T00:44:08.976Z" agent="Mozilla/5.0 (Windows NT 10.0; Win64; x64) AppleWebKit/537.36 (KHTML, like Gecko) Chrome/114.0.0.0 Safari/537.36" etag="4fp2Npc_BomHfK-rLTvt" version="21.6.1" type="device">
  <diagram name="Page-1" id="Qqlblzz5lOhQhTR6p-FZ">
    <mxGraphModel dx="1728" dy="630" grid="1" gridSize="10" guides="1" tooltips="1" connect="1" arrows="1" fold="1" page="1" pageScale="1" pageWidth="827" pageHeight="1169" math="0" shadow="0">
      <root>
        <mxCell id="0" />
        <mxCell id="1" parent="0" />
        <mxCell id="C3srwpwdrDgBpbFUtEzZ-17" value="" style="rounded=0;whiteSpace=wrap;html=1;" vertex="1" parent="1">
          <mxGeometry x="30" y="40" width="540" height="440" as="geometry" />
        </mxCell>
        <mxCell id="C3srwpwdrDgBpbFUtEzZ-20" value="Cadastrar Colaboradores" style="text;html=1;strokeColor=none;fillColor=none;align=left;verticalAlign=middle;whiteSpace=wrap;rounded=0;fontStyle=1;fontSize=14;" vertex="1" parent="1">
          <mxGeometry x="46" y="54" width="210" height="30" as="geometry" />
        </mxCell>
        <mxCell id="C3srwpwdrDgBpbFUtEzZ-21" value="Lista dos colaboradores cadastrados" style="text;html=1;strokeColor=none;fillColor=none;align=left;verticalAlign=middle;whiteSpace=wrap;rounded=0;" vertex="1" parent="1">
          <mxGeometry x="46" y="74" width="234" height="30" as="geometry" />
        </mxCell>
        <mxCell id="C3srwpwdrDgBpbFUtEzZ-22" value="&lt;blockquote style=&quot;margin: 0 0 0 40px; border: none; padding: 0px;&quot;&gt;&lt;/blockquote&gt;&lt;blockquote style=&quot;margin: 0 0 0 40px; border: none; padding: 0px;&quot;&gt;&lt;/blockquote&gt;&lt;ul&gt;&lt;li&gt;&lt;span style=&quot;font-size: 12px;&quot;&gt;Ao carregar exibir todos os colabores.&lt;/span&gt;&lt;/li&gt;&lt;li&gt;&lt;span style=&quot;font-size: 12px;&quot;&gt;Utilizar paginação, exibindo 10 linhas por página.&lt;/span&gt;&lt;/li&gt;&lt;li&gt;&lt;span style=&quot;font-size: 12px;&quot;&gt;Permitir filtrar resultados por Nome e Unidade e Equipe.&lt;/span&gt;&lt;/li&gt;&lt;li&gt;&lt;span style=&quot;font-size: 12px;&quot;&gt;Ao filtrar volta para a primeira página.&lt;/span&gt;&lt;/li&gt;&lt;li&gt;&lt;span style=&quot;font-size: 12px;&quot;&gt;Ordenar os resultados por Nome em ordem ascendente.&lt;/span&gt;&lt;/li&gt;&lt;li&gt;&lt;span style=&quot;font-size: 12px;&quot;&gt;Adicionar vai para o formulário&lt;/span&gt;&lt;/li&gt;&lt;li&gt;&lt;span style=&quot;font-size: 12px;&quot;&gt;Editar vai para o formulário enviando o id do colaborador&lt;/span&gt;&lt;/li&gt;&lt;li&gt;&lt;span style=&quot;font-size: 12px;&quot;&gt;Excluir vai para a tela de confirmação de exclusão.&lt;/span&gt;&lt;/li&gt;&lt;li&gt;&lt;span style=&quot;font-size: 12px;&quot;&gt;Ao voltar do formulário ou da exclusão os filtros e a página selecionados devem ser mantidos.&lt;/span&gt;&lt;/li&gt;&lt;/ul&gt;" style="strokeWidth=1;shadow=0;dashed=0;align=left;html=1;shape=mxgraph.mockup.text.stickyNote2;fontColor=#666666;mainText=;fontSize=17;whiteSpace=wrap;fillColor=#ffffcc;strokeColor=#F62E00;" vertex="1" parent="1">
          <mxGeometry x="590" y="50" width="400" height="290" as="geometry" />
        </mxCell>
        <mxCell id="C3srwpwdrDgBpbFUtEzZ-23" value="+ Adicionar" style="html=1;shadow=0;dashed=0;shape=mxgraph.bootstrap.rrect;rSize=5;strokeColor=none;strokeWidth=1;fillColor=#33A64C;fontColor=#FFFFFF;whiteSpace=wrap;align=center;verticalAlign=middle;spacingLeft=0;fontStyle=0;fontSize=16;spacing=5;" vertex="1" parent="1">
          <mxGeometry x="46" y="114" width="104" height="30" as="geometry" />
        </mxCell>
        <mxCell id="C3srwpwdrDgBpbFUtEzZ-24" value="" style="childLayout=tableLayout;recursiveResize=0;shadow=0;fillColor=none;strokeColor=#C0C0C0;" vertex="1" parent="1">
          <mxGeometry x="50" y="290" width="500" height="133" as="geometry" />
        </mxCell>
        <mxCell id="C3srwpwdrDgBpbFUtEzZ-25" value="" style="shape=tableRow;horizontal=0;startSize=0;swimlaneHead=0;swimlaneBody=0;top=0;left=0;bottom=0;right=0;dropTarget=0;collapsible=0;recursiveResize=0;expand=0;fontStyle=0;fillColor=none;" vertex="1" parent="C3srwpwdrDgBpbFUtEzZ-24">
          <mxGeometry width="500" height="40" as="geometry" />
        </mxCell>
        <mxCell id="C3srwpwdrDgBpbFUtEzZ-26" value="&lt;b&gt;&amp;nbsp; Id&lt;/b&gt;" style="connectable=0;recursiveResize=0;strokeColor=none;fillColor=none;align=left;whiteSpace=wrap;html=1;" vertex="1" parent="C3srwpwdrDgBpbFUtEzZ-25">
          <mxGeometry width="100" height="40" as="geometry">
            <mxRectangle width="100" height="40" as="alternateBounds" />
          </mxGeometry>
        </mxCell>
        <mxCell id="C3srwpwdrDgBpbFUtEzZ-27" value="&lt;b&gt;Nome&lt;/b&gt;" style="connectable=0;recursiveResize=0;strokeColor=none;fillColor=none;align=left;whiteSpace=wrap;html=1;" vertex="1" parent="C3srwpwdrDgBpbFUtEzZ-25">
          <mxGeometry x="100" width="100" height="40" as="geometry">
            <mxRectangle width="100" height="40" as="alternateBounds" />
          </mxGeometry>
        </mxCell>
        <mxCell id="C3srwpwdrDgBpbFUtEzZ-28" value="&lt;b&gt;Unidade&lt;/b&gt;" style="connectable=0;recursiveResize=0;strokeColor=none;fillColor=none;align=left;whiteSpace=wrap;html=1;" vertex="1" parent="C3srwpwdrDgBpbFUtEzZ-25">
          <mxGeometry x="200" width="100" height="40" as="geometry">
            <mxRectangle width="100" height="40" as="alternateBounds" />
          </mxGeometry>
        </mxCell>
        <mxCell id="C3srwpwdrDgBpbFUtEzZ-37" value="&lt;b&gt;Editar&lt;/b&gt;" style="connectable=0;recursiveResize=0;strokeColor=none;fillColor=none;align=center;whiteSpace=wrap;html=1;" vertex="1" parent="C3srwpwdrDgBpbFUtEzZ-25">
          <mxGeometry x="300" width="100" height="40" as="geometry">
            <mxRectangle width="100" height="40" as="alternateBounds" />
          </mxGeometry>
        </mxCell>
        <mxCell id="C3srwpwdrDgBpbFUtEzZ-40" value="&lt;b&gt;Excluir&lt;/b&gt;" style="connectable=0;recursiveResize=0;strokeColor=none;fillColor=none;align=center;whiteSpace=wrap;html=1;" vertex="1" parent="C3srwpwdrDgBpbFUtEzZ-25">
          <mxGeometry x="400" width="100" height="40" as="geometry">
            <mxRectangle width="100" height="40" as="alternateBounds" />
          </mxGeometry>
        </mxCell>
        <mxCell id="C3srwpwdrDgBpbFUtEzZ-29" style="shape=tableRow;horizontal=0;startSize=0;swimlaneHead=0;swimlaneBody=0;top=0;left=0;bottom=0;right=0;dropTarget=0;collapsible=0;recursiveResize=0;expand=0;fontStyle=0;fillColor=none;" vertex="1" parent="C3srwpwdrDgBpbFUtEzZ-24">
          <mxGeometry y="40" width="500" height="46" as="geometry" />
        </mxCell>
        <mxCell id="C3srwpwdrDgBpbFUtEzZ-30" value="&amp;nbsp; 1" style="connectable=0;recursiveResize=0;strokeColor=none;fillColor=none;align=left;whiteSpace=wrap;html=1;" vertex="1" parent="C3srwpwdrDgBpbFUtEzZ-29">
          <mxGeometry width="100" height="46" as="geometry">
            <mxRectangle width="100" height="46" as="alternateBounds" />
          </mxGeometry>
        </mxCell>
        <mxCell id="C3srwpwdrDgBpbFUtEzZ-31" value="&amp;nbsp;Maria da Silva" style="connectable=0;recursiveResize=0;strokeColor=none;fillColor=none;align=left;whiteSpace=wrap;html=1;" vertex="1" parent="C3srwpwdrDgBpbFUtEzZ-29">
          <mxGeometry x="100" width="100" height="46" as="geometry">
            <mxRectangle width="100" height="46" as="alternateBounds" />
          </mxGeometry>
        </mxCell>
        <mxCell id="C3srwpwdrDgBpbFUtEzZ-32" value="Porto Alegre" style="connectable=0;recursiveResize=0;strokeColor=none;fillColor=none;align=left;whiteSpace=wrap;html=1;" vertex="1" parent="C3srwpwdrDgBpbFUtEzZ-29">
          <mxGeometry x="200" width="100" height="46" as="geometry">
            <mxRectangle width="100" height="46" as="alternateBounds" />
          </mxGeometry>
        </mxCell>
        <mxCell id="C3srwpwdrDgBpbFUtEzZ-38" style="connectable=0;recursiveResize=0;strokeColor=none;fillColor=none;align=center;whiteSpace=wrap;html=1;" vertex="1" parent="C3srwpwdrDgBpbFUtEzZ-29">
          <mxGeometry x="300" width="100" height="46" as="geometry">
            <mxRectangle width="100" height="46" as="alternateBounds" />
          </mxGeometry>
        </mxCell>
        <mxCell id="C3srwpwdrDgBpbFUtEzZ-41" style="connectable=0;recursiveResize=0;strokeColor=none;fillColor=none;align=center;whiteSpace=wrap;html=1;" vertex="1" parent="C3srwpwdrDgBpbFUtEzZ-29">
          <mxGeometry x="400" width="100" height="46" as="geometry">
            <mxRectangle width="100" height="46" as="alternateBounds" />
          </mxGeometry>
        </mxCell>
        <mxCell id="C3srwpwdrDgBpbFUtEzZ-33" style="shape=tableRow;horizontal=0;startSize=0;swimlaneHead=0;swimlaneBody=0;top=0;left=0;bottom=0;right=0;dropTarget=0;collapsible=0;recursiveResize=0;expand=0;fontStyle=0;fillColor=none;" vertex="1" parent="C3srwpwdrDgBpbFUtEzZ-24">
          <mxGeometry y="86" width="500" height="47" as="geometry" />
        </mxCell>
        <mxCell id="C3srwpwdrDgBpbFUtEzZ-34" value="&amp;nbsp; 2" style="connectable=0;recursiveResize=0;strokeColor=none;fillColor=none;align=left;whiteSpace=wrap;html=1;" vertex="1" parent="C3srwpwdrDgBpbFUtEzZ-33">
          <mxGeometry width="100" height="47" as="geometry">
            <mxRectangle width="100" height="47" as="alternateBounds" />
          </mxGeometry>
        </mxCell>
        <mxCell id="C3srwpwdrDgBpbFUtEzZ-35" value="Luiz Santos" style="connectable=0;recursiveResize=0;strokeColor=none;fillColor=none;align=left;whiteSpace=wrap;html=1;" vertex="1" parent="C3srwpwdrDgBpbFUtEzZ-33">
          <mxGeometry x="100" width="100" height="47" as="geometry">
            <mxRectangle width="100" height="47" as="alternateBounds" />
          </mxGeometry>
        </mxCell>
        <mxCell id="C3srwpwdrDgBpbFUtEzZ-36" value="Campinas" style="connectable=0;recursiveResize=0;strokeColor=none;fillColor=none;align=left;whiteSpace=wrap;html=1;" vertex="1" parent="C3srwpwdrDgBpbFUtEzZ-33">
          <mxGeometry x="200" width="100" height="47" as="geometry">
            <mxRectangle width="100" height="47" as="alternateBounds" />
          </mxGeometry>
        </mxCell>
        <mxCell id="C3srwpwdrDgBpbFUtEzZ-39" style="connectable=0;recursiveResize=0;strokeColor=none;fillColor=none;align=center;whiteSpace=wrap;html=1;" vertex="1" parent="C3srwpwdrDgBpbFUtEzZ-33">
          <mxGeometry x="300" width="100" height="47" as="geometry">
            <mxRectangle width="100" height="47" as="alternateBounds" />
          </mxGeometry>
        </mxCell>
        <mxCell id="C3srwpwdrDgBpbFUtEzZ-42" style="connectable=0;recursiveResize=0;strokeColor=none;fillColor=none;align=center;whiteSpace=wrap;html=1;" vertex="1" parent="C3srwpwdrDgBpbFUtEzZ-33">
          <mxGeometry x="400" width="100" height="47" as="geometry">
            <mxRectangle width="100" height="47" as="alternateBounds" />
          </mxGeometry>
        </mxCell>
        <mxCell id="C3srwpwdrDgBpbFUtEzZ-43" value="" style="shape=image;verticalLabelPosition=bottom;labelBackgroundColor=default;verticalAlign=top;aspect=fixed;imageAspect=0;image=data:image/png,iVBORw0KGgoAAAANSUhEUgAAAC8AAAApCAYAAAClfnCxAAAAAXNSR0IArs4c6QAAAARnQU1BAACxjwv8YQUAAAAJcEhZcwAADsMAAA7DAcdvqGQAAAKRSURBVFhH7ZcxaBRBGIXfrEoUQYKIiYUGbIIiscqBjVdFJaggMSBoI2IK8aoYkROLILEw18UqkOawEMTGgKhcQCshYnEoyiEIV4iJYvCUYI7AjW92Z0HDGrIzc7cc7AdhZ+ey5Mu7/5+ZFZKgTfH0tS1J5ZMilU+KVD4pUvmkSOXjsrIkMf9OolbXE4a0+GwjUX4gcfYVsKhnRoYECkeFvotHC5Nn2ve1+HZgrA/I8q9PP5KYquhfiYlF8hKVZxI354DnEV9/7pzAxJEw0UD8/OtAvHTDQ2YHy+dNAwNFYKFf4OOF+OkbJ1+l+MkngXimkymu+emmZMBf4ur2N59d9j9A/RfFee3eHNzHxSz5hsTkqMTtDmA27yHLFKP5N/GZfiD/gmNGdu8EUOQ/P8/xzHUPw3v0IzEwS/4bUG7w2is2LK5KZfiMh9Ig0MVnr2rxWxeFkbjCuGzWJ7rGFZ27gB410OJjfWYrjaIJ8v8Xr7FBh9igYeI24grn8qqRWyGucCtflyg+pfg2NnKTxRVu5SuUZzMeplzYyJHiXK1qy/Ybu1P58numzuvpQ8I/v7x8HJ344pzE3rz5zhriUJ7nlg/BqMj4d49LnOLuG1kqapklK5YHM3fySxT9EQyrq9x19wGFQYG3456zGl+LO/mdPGxdFpi9IvC1wM1o1MPIcYEeXfvNwGHZUJS1nuWuu3WLnmoyZvKbAB5r/FKp+RPxWPiuB5bRGR6JJR7ekbjEpeUYj7O5A3p6A9Q/S9xVjcy9oMR+yPgpmGF+nv8icW1KYlofb2PBxCfYH7mDdo1s9xq4yhcSrtWVTxLVn3puPToEevdzE2NvdFkkHmInnzAOV5vWk8onRSqfFKl8UrSxPPAHWF8LRjAcDTEAAAAASUVORK5CYII=;" vertex="1" parent="1">
          <mxGeometry x="379.11" y="330" width="34.39" height="30" as="geometry" />
        </mxCell>
        <mxCell id="C3srwpwdrDgBpbFUtEzZ-44" value="" style="shape=image;verticalLabelPosition=bottom;labelBackgroundColor=default;verticalAlign=top;aspect=fixed;imageAspect=0;image=data:image/png,iVBORw0KGgoAAAANSUhEUgAAACEAAAAhCAYAAABX5MJvAAAAAXNSR0IArs4c6QAAAARnQU1BAACxjwv8YQUAAAAJcEhZcwAADsMAAA7DAcdvqGQAAAFcSURBVFhH7dY/SgNBFAbwbxIkuwSSIOLGKukEwT8HCFgIljlBGgsP4AnsvIBXSGtjp6WWEhAsxFK7oJUgrIWOz+Rb0JXJzkxWwsL+mn0vkOyXeTPZKC2wYBVeF6oMkShDJOY4HRqPI+DiXuOdr0w0FPZ7CuvL7C1Yh4jf5GYfbER8q9E7A8bsf5EA10cKXbbfaqFCsMQmxSpEfPOJzaHhhrYk2N1xBR22PxVrT6TH4WrucUw8aZxeee7hNYXDPQnBNs0+xFhjcKJxztbJjsLrgWLzV8F+rEKgzdJVP2JhYB+iAWR8llmVV4OCjUN0V1g42pbTMYvbSmQsqy+nEM06C0dBjYWBQwiFlmxOH+0WC4PibczI84yu5rkSgefGDPPbE8JnePKejAyO49hS6LO2FW3IXz3WJvZP0cSLxuVI4+GZ/QwdeXruSohmxld1D/EPfKacuzJEogwxBXwBujVWKxUj5b4AAAAASUVORK5CYII=;" vertex="1" parent="1">
          <mxGeometry x="490" y="335" width="20" height="20" as="geometry" />
        </mxCell>
        <mxCell id="C3srwpwdrDgBpbFUtEzZ-45" value="" style="shape=image;verticalLabelPosition=bottom;labelBackgroundColor=default;verticalAlign=top;aspect=fixed;imageAspect=0;image=data:image/png,iVBORw0KGgoAAAANSUhEUgAAACEAAAAhCAYAAABX5MJvAAAAAXNSR0IArs4c6QAAAARnQU1BAACxjwv8YQUAAAAJcEhZcwAADsMAAA7DAcdvqGQAAAFcSURBVFhH7dY/SgNBFAbwbxIkuwSSIOLGKukEwT8HCFgIljlBGgsP4AnsvIBXSGtjp6WWEhAsxFK7oJUgrIWOz+Rb0JXJzkxWwsL+mn0vkOyXeTPZKC2wYBVeF6oMkShDJOY4HRqPI+DiXuOdr0w0FPZ7CuvL7C1Yh4jf5GYfbER8q9E7A8bsf5EA10cKXbbfaqFCsMQmxSpEfPOJzaHhhrYk2N1xBR22PxVrT6TH4WrucUw8aZxeee7hNYXDPQnBNs0+xFhjcKJxztbJjsLrgWLzV8F+rEKgzdJVP2JhYB+iAWR8llmVV4OCjUN0V1g42pbTMYvbSmQsqy+nEM06C0dBjYWBQwiFlmxOH+0WC4PibczI84yu5rkSgefGDPPbE8JnePKejAyO49hS6LO2FW3IXz3WJvZP0cSLxuVI4+GZ/QwdeXruSohmxld1D/EPfKacuzJEogwxBXwBujVWKxUj5b4AAAAASUVORK5CYII=;" vertex="1" parent="1">
          <mxGeometry x="490" y="380" width="20" height="20" as="geometry" />
        </mxCell>
        <mxCell id="C3srwpwdrDgBpbFUtEzZ-46" value="" style="shape=image;verticalLabelPosition=bottom;labelBackgroundColor=default;verticalAlign=top;aspect=fixed;imageAspect=0;image=data:image/png,iVBORw0KGgoAAAANSUhEUgAAAC8AAAApCAYAAAClfnCxAAAAAXNSR0IArs4c6QAAAARnQU1BAACxjwv8YQUAAAAJcEhZcwAADsMAAA7DAcdvqGQAAAKRSURBVFhH7ZcxaBRBGIXfrEoUQYKIiYUGbIIiscqBjVdFJaggMSBoI2IK8aoYkROLILEw18UqkOawEMTGgKhcQCshYnEoyiEIV4iJYvCUYI7AjW92Z0HDGrIzc7cc7AdhZ+ey5Mu7/5+ZFZKgTfH0tS1J5ZMilU+KVD4pUvmkSOXjsrIkMf9OolbXE4a0+GwjUX4gcfYVsKhnRoYECkeFvotHC5Nn2ve1+HZgrA/I8q9PP5KYquhfiYlF8hKVZxI354DnEV9/7pzAxJEw0UD8/OtAvHTDQ2YHy+dNAwNFYKFf4OOF+OkbJ1+l+MkngXimkymu+emmZMBf4ur2N59d9j9A/RfFee3eHNzHxSz5hsTkqMTtDmA27yHLFKP5N/GZfiD/gmNGdu8EUOQ/P8/xzHUPw3v0IzEwS/4bUG7w2is2LK5KZfiMh9Ig0MVnr2rxWxeFkbjCuGzWJ7rGFZ27gB410OJjfWYrjaIJ8v8Xr7FBh9igYeI24grn8qqRWyGucCtflyg+pfg2NnKTxRVu5SuUZzMeplzYyJHiXK1qy/Ybu1P58numzuvpQ8I/v7x8HJ344pzE3rz5zhriUJ7nlg/BqMj4d49LnOLuG1kqapklK5YHM3fySxT9EQyrq9x19wGFQYG3456zGl+LO/mdPGxdFpi9IvC1wM1o1MPIcYEeXfvNwGHZUJS1nuWuu3WLnmoyZvKbAB5r/FKp+RPxWPiuB5bRGR6JJR7ekbjEpeUYj7O5A3p6A9Q/S9xVjcy9oMR+yPgpmGF+nv8icW1KYlofb2PBxCfYH7mDdo1s9xq4yhcSrtWVTxLVn3puPToEevdzE2NvdFkkHmInnzAOV5vWk8onRSqfFKl8UrSxPPAHWF8LRjAcDTEAAAAASUVORK5CYII=;" vertex="1" parent="1">
          <mxGeometry x="379.11" y="375" width="34.39" height="30" as="geometry" />
        </mxCell>
        <mxCell id="C3srwpwdrDgBpbFUtEzZ-57" value="" style="html=1;shadow=0;dashed=0;shape=mxgraph.bootstrap.rrect;rSize=5;strokeColor=#DEE2E6;html=1;whiteSpace=wrap;fillColor=#ffffff;fontColor=#0085FC;fontSize=14;" vertex="1" parent="1">
          <mxGeometry x="330" y="440" width="220" height="30" as="geometry" />
        </mxCell>
        <mxCell id="C3srwpwdrDgBpbFUtEzZ-58" value="Anterior" style="strokeColor=inherit;fillColor=inherit;gradientColor=inherit;html=1;shadow=0;dashed=0;shape=mxgraph.bootstrap.leftButton;rSize=5;perimeter=none;whiteSpace=wrap;resizeHeight=1;fontColor=#6C767D;fontSize=14;" vertex="1" parent="C3srwpwdrDgBpbFUtEzZ-57">
          <mxGeometry width="70" height="30" relative="1" as="geometry" />
        </mxCell>
        <mxCell id="C3srwpwdrDgBpbFUtEzZ-59" value="1" style="strokeColor=inherit;fillColor=inherit;gradientColor=inherit;fontColor=inherit;html=1;shadow=0;dashed=0;perimeter=none;whiteSpace=wrap;resizeHeight=1;fontSize=14;" vertex="1" parent="C3srwpwdrDgBpbFUtEzZ-57">
          <mxGeometry width="30" height="30" relative="1" as="geometry">
            <mxPoint x="70" as="offset" />
          </mxGeometry>
        </mxCell>
        <mxCell id="C3srwpwdrDgBpbFUtEzZ-60" value="2" style="html=1;shadow=0;dashed=0;perimeter=none;whiteSpace=wrap;resizeHeight=1;fillColor=#0085FC;strokeColor=none;fontColor=#ffffff;fontSize=14;" vertex="1" parent="C3srwpwdrDgBpbFUtEzZ-57">
          <mxGeometry width="30" height="30" relative="1" as="geometry">
            <mxPoint x="100" as="offset" />
          </mxGeometry>
        </mxCell>
        <mxCell id="C3srwpwdrDgBpbFUtEzZ-61" value="3" style="strokeColor=inherit;fillColor=inherit;gradientColor=inherit;fontColor=inherit;html=1;shadow=0;dashed=0;perimeter=none;whiteSpace=wrap;resizeHeight=1;fontSize=14;" vertex="1" parent="C3srwpwdrDgBpbFUtEzZ-57">
          <mxGeometry width="30" height="30" relative="1" as="geometry">
            <mxPoint x="130" as="offset" />
          </mxGeometry>
        </mxCell>
        <mxCell id="C3srwpwdrDgBpbFUtEzZ-62" value="Próxima" style="strokeColor=inherit;fillColor=inherit;gradientColor=inherit;fontColor=inherit;html=1;shadow=0;dashed=0;shape=mxgraph.bootstrap.rightButton;rSize=5;perimeter=none;whiteSpace=wrap;resizeHeight=1;fontSize=14;" vertex="1" parent="C3srwpwdrDgBpbFUtEzZ-57">
          <mxGeometry x="1" width="60" height="30" relative="1" as="geometry">
            <mxPoint x="-60" as="offset" />
          </mxGeometry>
        </mxCell>
        <mxCell id="C3srwpwdrDgBpbFUtEzZ-63" value="1900 colaborador(es) cadastrado(s)" style="text;html=1;strokeColor=none;fillColor=none;align=left;verticalAlign=middle;whiteSpace=wrap;rounded=0;" vertex="1" parent="1">
          <mxGeometry x="50" y="440" width="260" height="30" as="geometry" />
        </mxCell>
        <mxCell id="C3srwpwdrDgBpbFUtEzZ-64" value="" style="strokeWidth=1;html=1;shadow=0;dashed=0;shape=mxgraph.ios.iTextInput;strokeColor=#444444;buttonText=;fontSize=8;whiteSpace=wrap;align=left;" vertex="1" parent="1">
          <mxGeometry x="50" y="194" width="210" height="20" as="geometry" />
        </mxCell>
        <mxCell id="C3srwpwdrDgBpbFUtEzZ-65" value="" style="html=1;shadow=0;dashed=0;shape=mxgraph.bootstrap.rrect;rSize=5;strokeColor=#505050;strokeWidth=1;fillColor=#ffffff;fontColor=#777777;whiteSpace=wrap;align=left;verticalAlign=middle;fontStyle=0;fontSize=12;spacing=15;" vertex="1" parent="1">
          <mxGeometry x="270" y="194" width="190" height="20" as="geometry" />
        </mxCell>
        <mxCell id="C3srwpwdrDgBpbFUtEzZ-66" value="" style="shape=triangle;direction=south;fillColor=#495057;strokeColor=none;perimeter=none;" vertex="1" parent="C3srwpwdrDgBpbFUtEzZ-65">
          <mxGeometry x="1" y="0.5" width="10" height="5" relative="1" as="geometry">
            <mxPoint x="-17" y="-2.5" as="offset" />
          </mxGeometry>
        </mxCell>
        <mxCell id="C3srwpwdrDgBpbFUtEzZ-67" value="Nome" style="text;html=1;strokeColor=none;fillColor=none;align=left;verticalAlign=middle;whiteSpace=wrap;rounded=0;" vertex="1" parent="1">
          <mxGeometry x="50" y="169" width="60" height="30" as="geometry" />
        </mxCell>
        <mxCell id="C3srwpwdrDgBpbFUtEzZ-68" value="Unidade" style="text;html=1;strokeColor=none;fillColor=none;align=left;verticalAlign=middle;whiteSpace=wrap;rounded=0;" vertex="1" parent="1">
          <mxGeometry x="270" y="169" width="60" height="30" as="geometry" />
        </mxCell>
        <mxCell id="C3srwpwdrDgBpbFUtEzZ-69" value="Filtrar" style="html=1;shadow=0;dashed=0;shape=mxgraph.bootstrap.rrect;rSize=5;strokeColor=none;strokeWidth=1;fillColor=#6C767D;fontColor=#FFFFFF;whiteSpace=wrap;align=center;verticalAlign=middle;spacingLeft=0;fontStyle=0;fontSize=16;spacing=5;" vertex="1" parent="1">
          <mxGeometry x="470" y="229" width="80" height="30" as="geometry" />
        </mxCell>
        <mxCell id="C3srwpwdrDgBpbFUtEzZ-70" value="" style="html=1;shadow=0;dashed=0;shape=mxgraph.bootstrap.rrect;rSize=5;strokeColor=#505050;strokeWidth=1;fillColor=#ffffff;fontColor=#777777;whiteSpace=wrap;align=left;verticalAlign=middle;fontStyle=0;fontSize=12;spacing=15;" vertex="1" parent="1">
          <mxGeometry x="50" y="239" width="210" height="20" as="geometry" />
        </mxCell>
        <mxCell id="C3srwpwdrDgBpbFUtEzZ-71" value="" style="shape=triangle;direction=south;fillColor=#495057;strokeColor=none;perimeter=none;" vertex="1" parent="C3srwpwdrDgBpbFUtEzZ-70">
          <mxGeometry x="1" y="0.5" width="10" height="5" relative="1" as="geometry">
            <mxPoint x="-17" y="-2.5" as="offset" />
          </mxGeometry>
        </mxCell>
        <mxCell id="C3srwpwdrDgBpbFUtEzZ-72" value="Equipe" style="text;html=1;strokeColor=none;fillColor=none;align=left;verticalAlign=middle;whiteSpace=wrap;rounded=0;" vertex="1" parent="1">
          <mxGeometry x="50" y="214" width="60" height="30" as="geometry" />
        </mxCell>
      </root>
    </mxGraphModel>
  </diagram>
</mxfile>
